<?xml version="1.0" encoding="utf-8"?>
<!-- Generator: Adobe Illustrator 16.0.0, SVG Export Plug-In . SVG Version: 6.00 Build 0)  -->
<!DOCTYPE svg PUBLIC "-//W3C//DTD SVG 1.1//EN" "http://www.w3.org/Graphics/SVG/1.1/DTD/svg11.dtd">
<svg version="1.1" id="Layer_1" xmlns="http://www.w3.org/2000/svg" xmlns:xlink="http://www.w3.org/1999/xlink" x="0px" y="0px"
	 width="60px" height="60px" viewBox="0 0 60 60" enable-background="new 0 0 60 60" xml:space="preserve">
<title>ico-hitcon</title>
<desc>Created with Sketch.</desc>
<g id="YMsJGt_1_">
	<g>
		<g>
			<path fill="#CC00FF" enable-background="new    " d="M19.741,29.71c-0.364-0.914-0.771-1.94-1.237-3.113
				c0.817-0.252,1.597-0.495,2.477-0.767c-0.249-0.794-0.447-1.597-0.766-2.349c-0.104-0.247-0.503-0.408-0.8-0.526
				c-1.77-0.715-3.622-1.267-5.304-2.143c-1.718-0.896-3.386-2.125-2.998-4.426c0.353-2.089,2.234-2.57,3.931-3.025
				c1.472-0.396,2.993-0.642,4.507-0.831c0.703-0.088,0.981-0.379,1.159-1.006c0.426-1.509,0.981-2.985,1.346-4.507
				c0.273-1.142,0.938-1.782,1.974-2.175c2.716-1.03,5.551-1.15,8.382-0.937c1.812,0.138,3.612,0.565,5.39,0.989
				c1.023,0.243,1.633,0.986,1.898,2.084c0.379,1.559,0.941,3.071,1.382,4.618c0.168,0.596,0.466,0.814,1.093,0.927
				c1.99,0.36,4.005,0.688,5.922,1.306c2.06,0.663,2.943,1.941,2.535,3.53c-0.23,0.895-0.81,1.959-1.555,2.413
				c-1.876,1.14-3.889,2.1-5.938,2.885c-1.064,0.406-1.815,0.793-1.974,1.984c-0.049,0.363-0.263,0.704-0.448,1.173
				c0.849,0.254,1.633,0.49,2.541,0.763c-0.446,1.14-0.871,2.223-1.24,3.166c1.821,1.212,3.585,2.335,5.29,3.536
				c0.968,0.681,1.476,1.609,1.611,2.877c0.495,4.567,1.095,9.122,1.728,13.671c0.153,1.09-0.192,1.726-1.172,1.994
				c-2.647,0.725-5.274,1.671-7.975,2.038c-8.28,1.123-16.571,1.199-24.769-0.752c-1.365-0.327-2.664-0.933-3.983-1.435
				c-0.732-0.278-0.984-0.793-0.915-1.618c0.417-4.885,0.741-9.774,1.206-14.652c0.062-0.66,0.598-1.438,1.148-1.854
				C15.941,32.217,17.806,31.032,19.741,29.71z M21.985,18.191c0.158,1.797,1.428,3.266,3.274,3.82
				c1.576,0.473,3.317,0.084,4.146-0.96c-2.377-0.957-4.741-1.909-7.108-2.855C22.209,18.161,22.092,18.191,21.985,18.191z
				 M32.251,21.104c1.542,1.262,3.496,1.436,5.199,0.511c1.362-0.74,2.155-1.871,2.481-3.622
				C37.217,19.093,34.767,20.085,32.251,21.104z"/>
			<path fill="#FFFF00" d="M32.251,21.104c2.516-1.02,4.966-2.012,7.681-3.111"/>
		</g>
	</g>
</g>
</svg>
