<?xml version="1.0" encoding="UTF-8" standalone="no"?>
<svg width="60px" height="60px" viewBox="0 0 60 60" version="1.1" xmlns="http://www.w3.org/2000/svg" xmlns:xlink="http://www.w3.org/1999/xlink">
    <!-- Generator: Sketch 3.8.2 (29753) - http://www.bohemiancoding.com/sketch -->
    <title>ico-hitcon</title>
    <desc>Created with Sketch.</desc>
    <defs>
        <polyline id="path-1" points="0 0.0110496586 40.846895 0.0110496586 40.846895 28.9577259 0 28.9577259"></polyline>
        <polyline id="path-3" points="0 0.0110496586 40.846895 0.0110496586 40.846895 28.9577259 0 28.9577259"></polyline>
    </defs>
    <g id="Page-1" stroke="none" stroke-width="1" fill="none" fill-rule="evenodd">
        <g id="ico-hitcon">
            <circle id="Oval-1" fill="#E0E0E0" cx="30" cy="30" r="26"></circle>
            <g id="Group" transform="translate(9.000000, 15.000000)">
                <path d="M10.9517274,6.9704507 C10.7839632,7.70900399 9.43647362,8.42343902 9.40168494,8.69901385 C9.27724325,9.68476553 7.8473268,8.65953791 8.20921506,9.5457659 C8.25302527,9.6530527 6.33643311,9.15160787 4.3676782,8.45148929 C2.3989233,7.75137071 0.86976153,6.86950323 0.365381577,6.9704507 C0.0361780363,7.14370745 2.04526151,7.865224 4.36767811,10.0367187 C8.30335278,13.7166341 17.3804482,23.280763 26.9012208,27.1585724 C32.4611371,29.5864327 26.5848474,19.9047932 31.0485828,20.3956822 C33.7601692,20.6938827 31.8249047,16.2889192 31.1248381,15.1786761 C29.5398501,12.6650269 28.9255566,12.6682953 25.5543783,12.2250698 C21.9476824,11.7508796 18.2932259,11.7310465 14.6806542,11.3044573 C13.2761692,11.1386092 14.8559088,8.05585495 11.8954244,7.73690709 L10.9517274,6.9704507 Z" id="Path-6" fill="#FFFFFF"></path>
                <g id="Page-1">
                    <path d="M17.1578129,0.192187855 C18.9720124,-0.556140747 21.0168143,1.20647031 23.4653598,1.98604277 C26.5422028,2.96565216 29.9158047,3.39201657 30.4159476,6.62956654 C31.2268369,11.8804405 29.7196035,14.8558468 29.7196035,14.8558468 C29.7196035,14.8558468 25.797848,17.7706706 17.8726808,13.717351 C9.94864783,9.6640314 10.717575,7.73643751 10.717575,7.73643751 C10.717575,7.73643751 11.8993186,2.36211219 17.1578129,0.192187855" id="Fill-1" fill="#231F1F"></path>
                    <g id="Group-5">
                        <mask id="mask-2" fill="white">
                            <use xlink:href="#path-1"></use>
                        </mask>
                        <g id="Clip-4"></g>
                        <path d="M9.98860633,8.13319646 C9.98860633,8.13319646 9.02272187,8.96344494 9.24916601,9.74758968 C9.47636623,10.5321154 11.2584325,13.7765238 16.7010308,16.1270529 C22.1443852,18.4791061 27.7363081,18.8422207 29.4616689,17.3021269 C30.0098225,16.8125128 29.6937836,14.5595255 29.6937836,14.5595255 L30.2854115,10.557644 C31.1855175,10.961147 31.6247965,11.011823 33.0983846,11.7369092 C36.9653248,13.6393556 42.4933595,20.037489 40.3801328,25.0338398 C38.2672841,30.0305716 30.4517477,30.3209109 22.9764446,25.5272642 C10.4052031,17.4674908 9.35085796,10.9333324 3.26862109,8.04060794 C2.04226914,7.45726217 4.73616062,8.94629892 7.42967406,8.4593519 C10.1228095,7.97164283 9.98860633,8.13319646 9.98860633,8.13319646" id="Fill-3" fill="#231F1F" mask="url(#mask-2)"></path>
                    </g>
                    <g id="Group-8">
                        <mask id="mask-4" fill="white">
                            <use xlink:href="#path-3"></use>
                        </mask>
                        <g id="Clip-7"></g>
                        <path d="M1.45101932,7.17675325 C4.51198469,8.5869183 9.70243235,14.2332938 13.8532783,18.7876583 C13.8532783,18.7876583 1.94397953,8.67264841 0.668104744,8.01462219 C-0.446726292,7.4392779 -0.153747637,6.43718817 1.45101932,7.17675325" id="Fill-6" fill="#231F1F" mask="url(#mask-4)"></path>
                    </g>
                </g>
            </g>
        </g>
    </g>
</svg>