<?xml version="1.0" encoding="UTF-8" standalone="no"?>
<svg width="40px" height="40px" viewBox="0 0 40 40" version="1.1" xmlns="http://www.w3.org/2000/svg" xmlns:xlink="http://www.w3.org/1999/xlink">
    <!-- Generator: Sketch 3.8.3 (29802) - http://www.bohemiancoding.com/sketch -->
    <title>map-marker</title>
    <desc>Created with Sketch.</desc>
    <defs>
        <polyline id="path-1" points="8.8817842e-16 0.00808233956 29.8777082 0.00808233956 29.8777082 21.1813037 8.8817842e-16 21.1813037"></polyline>
        <polyline id="path-3" points="0 0.00808233956 29.8777082 0.00808233956 29.8777082 21.1813037 0 21.1813037"></polyline>
    </defs>
    <g id="Page-1" stroke="none" stroke-width="1" fill="none" fill-rule="evenodd">
        <g id="map-marker">
            <circle id="Oval-1" fill="#BED2DF" cx="20" cy="20" r="20"></circle>
            <g id="Group" transform="translate(5.000000, 9.000000)">
                <path d="M8.01070721,5.09857829 C7.88799509,5.63879756 6.90236566,6.16137538 6.87691927,6.36294625 C6.78589564,7.08398028 5.73997462,6.33407134 6.00467997,6.98230816 C6.03672521,7.06078374 4.6348223,6.69399889 3.19476462,6.18189292 C1.75470694,5.66978695 0.636192328,5.02473965 0.267260563,5.09857829 C0.0264626433,5.22530799 1.49601889,5.75306563 3.19476456,7.34141854 C6.07353758,10.0331149 12.7130339,17.0288548 19.6770605,19.8653019 C23.7438949,21.641175 19.4456473,14.5594813 22.7106735,14.918545 C24.6940798,15.1366655 23.2785189,11.9146284 22.7664509,11.1025343 C21.6071019,9.26391047 21.1577732,9.26630113 18.6919045,8.94210116 C16.053765,8.59525189 13.3806906,8.58074487 10.7382533,8.26871362 C9.71093422,8.14740303 10.8664443,5.89250379 8.70098006,5.65920745 L8.01070721,5.09857829 Z" id="Path-6" fill="#FFFFFF"></path>
                <g id="Page-1" transform="translate(0.000000, -0.000000)">
                    <path d="M12.550186,0.140576968 C13.8771931,-0.406792511 15.3728759,0.882479999 17.1638793,1.45270299 C19.4144546,2.1692442 21.8820962,2.48111102 22.2479287,4.84923651 C22.8410586,8.69002001 21.7385836,10.866399 21.7385836,10.866399 C21.7385836,10.866399 18.8699918,12.9984644 13.0730804,10.0336393 C7.27699858,7.06881418 7.83943503,5.65886398 7.83943503,5.65886398 C7.83943503,5.65886398 8.70382852,1.72778124 12.550186,0.140576968" id="Fill-1" fill="#3E6BC0"></path>
                    <g id="Group-5" transform="translate(0.000000, -0.000000)">
                        <mask id="mask-2" fill="white">
                            <use xlink:href="#path-1"></use>
                        </mask>
                        <g id="Clip-4"></g>
                        <path d="M7.30622647,5.94907571 C7.30622647,5.94907571 6.59972444,6.55636598 6.76535838,7.12993338 C6.93154536,7.70377949 8.23504852,10.0769216 12.2160699,11.7962303 C16.1976444,13.5166538 20.2878902,13.7822562 21.5499158,12.6557453 C21.9508661,12.2976141 21.7196975,10.6496529 21.7196975,10.6496529 L22.1524473,7.72245248 C22.8108353,8.01759723 23.1321485,8.05466451 24.2100134,8.58503321 C27.0385102,9.97658912 31.0820246,14.6565424 29.5362922,18.3111534 C27.9908363,21.9660431 22.2741149,22.1784135 16.8062593,18.6720717 C7.61094868,12.7767017 6.83974157,7.99725203 2.39085265,5.88135127 C1.49383011,5.45465949 3.46429331,6.54382442 5.43447999,6.18764407 C7.40439016,5.83090633 7.30622647,5.94907571 7.30622647,5.94907571" id="Fill-3" fill="#3E6BC0" mask="url(#mask-2)"></path>
                    </g>
                    <g id="Group-8" transform="translate(0.000000, -0.000000)">
                        <mask id="mask-4" fill="white">
                            <use xlink:href="#path-3"></use>
                        </mask>
                        <g id="Clip-7"></g>
                        <path d="M1.06135685,5.24947954 C3.30031847,6.28095329 7.09690278,10.4110288 10.1330642,13.7423462 C10.1330642,13.7423462 1.42193558,6.3436611 0.488689253,5.86234384 C-0.326760646,5.44150478 -0.112459639,4.70852019 1.06135685,5.24947954" id="Fill-6" fill="#3E6BC0" mask="url(#mask-4)"></path>
                    </g>
                </g>
            </g>
        </g>
    </g>
</svg>